/* XPM */
static char *gwp[] = {
/* columns rows colors chars-per-pixel */
"32 32 189 2",
"   c #181818",
".  c #191919",
"X  c gray10",
"o  c #1D1D1D",
"O  c gray12",
"+  c #1D1F20",
"@  c #1D1F21",
"#  c #1E1F21",
"$  c #1E2022",
"%  c #1F2123",
"&  c #202325",
"*  c #222527",
"=  c gray14",
"-  c #272727",
";  c #222528",
":  c #24272A",
">  c #25282A",
",  c #25282C",
"<  c #26292D",
"1  c #272A2E",
"2  c #272B2F",
"3  c #2A2F34",
"4  c #2A3035",
"5  c #2B3137",
"6  c #2F3133",
"7  c #2C3138",
"8  c #303337",
"9  c gray23",
"0  c #343C45",
"q  c #353E47",
"w  c #363F4A",
"e  c #374049",
"r  c #38414B",
"t  c #38424D",
"y  c #38434E",
"u  c #3B444F",
"i  c #414345",
"p  c #464646",
"a  c #4C4C4C",
"s  c gray30",
"d  c #505153",
"f  c #455462",
"g  c #465463",
"h  c #465563",
"j  c #455666",
"k  c #475564",
"l  c #475664",
"z  c #475765",
"x  c #465767",
"c  c #455668",
"v  c #465768",
"b  c #465769",
"n  c #475768",
"m  c #485769",
"M  c #485867",
"N  c #485868",
"B  c #485869",
"V  c #495869",
"C  c #495969",
"Z  c #48596A",
"A  c #49596A",
"S  c #495A6A",
"D  c #495A6B",
"F  c #4A5968",
"G  c #4A596A",
"H  c #4A596B",
"J  c #4A5A6A",
"K  c #4A5B6B",
"L  c #4B5A6A",
"P  c #4B5A6B",
"I  c #4B5B6B",
"U  c #4A5A6C",
"Y  c #4B5B6C",
"T  c #4C5B6C",
"R  c #4C5C6C",
"E  c #4C5C6D",
"W  c #4D5C6D",
"Q  c #4D5D6D",
"!  c #4D5C6E",
"~  c #4D5D6E",
"^  c #4E5C6D",
"/  c #4E5D6E",
"(  c #4E5E6D",
")  c #4E5E6E",
"_  c #4E5E6F",
"`  c #4F5E6F",
"'  c #4F5F6E",
"]  c #4F5F6F",
"[  c #505F6F",
"{  c #505E70",
"}  c #505F70",
"|  c #515F70",
" . c #506070",
".. c #506071",
"X. c #516070",
"o. c #516071",
"O. c #516170",
"+. c #516171",
"@. c #526071",
"#. c #526171",
"$. c #526172",
"%. c #526272",
"&. c #536273",
"*. c #536372",
"=. c #536373",
"-. c #536374",
";. c #546373",
":. c #546473",
">. c #556473",
",. c #546474",
"<. c #556474",
"1. c #556574",
"2. c #566574",
"3. c #566675",
"4. c #586575",
"5. c #596676",
"6. c #5A6775",
"7. c #5B6A79",
"8. c #5C6978",
"9. c #5C6A78",
"0. c #606060",
"q. c gray38",
"w. c #606364",
"e. c #646464",
"r. c #6A6A6A",
"t. c #6D6D6D",
"y. c #616D7A",
"u. c #626E7A",
"i. c #606F7D",
"p. c #616F7E",
"a. c #67737E",
"s. c #6F7071",
"d. c #68727E",
"f. c #6A747F",
"g. c #717171",
"h. c gray48",
"j. c #657481",
"k. c #6D7A87",
"l. c #73808D",
"z. c #808080",
"x. c #818181",
"c. c #838383",
"v. c #8F959A",
"b. c #929597",
"n. c #969798",
"m. c #989898",
"M. c #969BA0",
"N. c #979CA0",
"B. c #959FA9",
"V. c #9DA0A4",
"C. c gray64",
"Z. c #A0A6AC",
"A. c #A4A7AA",
"S. c #AFB1B3",
"D. c #AAB2BA",
"F. c gray69",
"G. c #B6B6B6",
"H. c #B0B7BE",
"J. c #B9BABB",
"K. c #C5C5C5",
"L. c #C6C6C6",
"P. c #CACACA",
"I. c gray80",
"U. c #CECECE",
"Y. c #CECECF",
"T. c #CFCFD0",
"R. c #D3D4D5",
"E. c #DADADB",
"W. c #DDDDDD",
"Q. c gray87",
"!. c #DEDFDF",
"~. c #DFDFDF",
"^. c #D9DDE0",
"/. c #DBDEE2",
"(. c #DCDFE2",
"). c #DDE0E3",
"_. c gray89",
"`. c #E2E5E7",
"'. c #E6E6E6",
"]. c #E3E6E8",
"[. c #E8E8E9",
"{. c #E9E9E9",
"}. c #EAEAEA",
"|. c #EAECEE",
" X c #ECECEC",
".X c gray93",
"XX c gray94",
"oX c #FDFDFD",
"OX c gray100",
/* pixels */
"b N N N N T T T T T Y ) ] ] ] { { { | &.$.$.$.$.[ O.O.) { ) ) ) ",
"b j j b N m T N T T Y Y ! ] ] ! { ] { { ] O.O.) [ [ ) ) ) ) ) T ",
"M j m m Z Z Z T T T T ) ! T ] ] ] ) $.] ] ] $.) [ [ [ ] ) ) T ] ",
"N b m N Z T Z T T ) T T ] ] ] ] $.$.$.$.$.$.] $.O.[ { { ] ) ) { ",
"N Z Z Z Z Y Y Y ) ) T ) ] ) $.$.$.$.$.$.$.=.$.$.] $.$.$.{ ) ) ..",
"N Z Z D Z Y Y Y ) M u 7 7 d s.m.S.v.6.$.=.$.,.,.=.=.] ] $.$.) ..",
"T N Z Y Y Y ) K r & . . . . . o a G.[.N.5.:.:.:.=.=.$.=...$.$.$.",
"N T K K Y Y h 2 .   . . . . . .   . g.oXT.u.:.:.1.=.$.$.$.$...$.",
"T D T D Y j >     . . . . . . . . . . e.oX_.j.:.1.1.1.$.$.=.O.$.",
"Y T Y Y Z 2     . . . . . . . . . . . . x.oXT.9.1.1.=.=.=.$.$.=.",
"Y K Y Y e . . . . . . . . . . . . . . . O P.oXJ.B.7.1.=.=.=.$.=.",
"Y K K Z % . . . . . . . . . . . . . . . . e.oX.X[.W.k.1.=.=.=.=.",
"Y Y Y y . . . . . . . . . . o . . X X X . - W.oXL.oX/.a.1.*.*.=.",
"Y Y ) 7 . . . . . . . . . . . . X X X X . . C.oXU.oXoXD.=.*.*.1.",
") K Y % . . oXoXoX. oX. o X oX. oXoXoXX o . x.oXW.oXoX(.=.1.*.=.",
"Y Y ) $   oX. . . . oX. oX. oXo oXX X oX. . t.oX.XoXoX X1.=.=.1.",
"Y Y ) + . oX. oXoX. oX. oXX oXX oXoXoX. . o r.oX.XoXoX).:.:.:.:.",
") N T * . oX. . oX. . oX. oXX X oXo . o . . h.oX_.oXoXH.:.:.,.:.",
"Y Y Y 4 . . oXoXoX. . oX. oX. X oX. . . o . m.oXU.oX`.j.1.$.=.,.",
"Y Y T t     . . . . . . . . . . o . . o . o T.oXK.`.l.:.$.1.$.&.",
"Y Y Y x %     . . . . . . . . . . . . . . s oXXXV.u.1.=.=.=.O.=.",
"Y Y K Y 0     . . . . . . . . . . . . . . F.oXV.7.1.=.=.=.=.$.=.",
"K D K K N 2 . . . . . . . . . . . . . . e.oXR.9.=.:.=.=.=.$.$.=.",
"K D K K T h * . . . . . . . . . . . . 9 [.[.j.4.:.:.=.=.$.$.$.$.",
"N T Z T Z Y f < .     . . . . . . . p '.E.d.=.=.:.=.=.=.] ] $.$.",
"N Z T Z Y Y Y N 0 %       . . . - x._.A.4.$.1.=.=.$.] $.$.$.] ] ",
"N N T T D Y Y ) Y j w 3 : 6 i w.b.m.u.$.$.=.=.=.$.$.$.$.] ] ] ] ",
"N N Z b D Y Y Y T Y ! ] ) ) { $...&.O.$.O.$.$.] ....] ] ] ] ] $.",
"N x b N Z Z K K T D Y ] T ] ) { ....$.] $.] O.] ) $.{ ) ] ] ) ] ",
"N j j b Z Z Z K D T Y Y ! T ) ) ..) ] ..{ { ] $.$.[ [ ) ( Y ) ) ",
"b j j b b Z Z Z D T T T T ] T [ ) ) ) $.[ [ { [ ) ) ) ) ) T N ) ",
"j m N N N N T N T T T ] T ] { { { [ [ $.$.[ $.{ [ ) ) { ) ) ) ) "
};
